<?xml version="1.0" encoding="utf-8"?>
<!-- Generator: Adobe Illustrator 16.0.0, SVG Export Plug-In . SVG Version: 6.00 Build 0)  -->
<!DOCTYPE svg PUBLIC "-//W3C//DTD SVG 1.1//EN" "http://www.w3.org/Graphics/SVG/1.1/DTD/svg11.dtd">
<svg version="1.1" id="Layer_1" xmlns="http://www.w3.org/2000/svg" xmlns:xlink="http://www.w3.org/1999/xlink" x="0px" y="0px"
	 width="210px" height="78.9px" viewBox="0 0 210 78.9" enable-background="new 0 0 210 78.9" xml:space="preserve">
<g>
	<g>
		<defs>
			<rect id="SVGID_1_" y="0" width="210" height="78.9"/>
		</defs>
		<clipPath id="SVGID_2_">
			<use xlink:href="#SVGID_1_"  overflow="visible"/>
		</clipPath>
		<path clip-path="url(#SVGID_2_)" fill="#004282" d="M210,39.4C210,61.2,163,78.8,105,78.8C47,78.9,0,61.2,0,39.4
			C0,17.7,47,0,105,0S210,17.7,210,39.4"/>
	</g>
	<g>
		<defs>
			<rect id="SVGID_3_" y="0" width="210" height="78.9"/>
		</defs>
		<clipPath id="SVGID_4_">
			<use xlink:href="#SVGID_3_"  overflow="visible"/>
		</clipPath>
		<path clip-path="url(#SVGID_4_)" fill="#FFFFFF" d="M20.1,51.4V32.6c0-1.2-0.7-1.801-1.7-1.801s-2,0.7-3.1,1.5v19h-4.8V27.2H15
			v2.4c2-1.801,3-2.9,5.3-2.9c2.4,0,3.2,0.9,4.2,2.9c2.3-2.301,3.6-2.9,5.4-2.9c3,0,4.5,1.9,4.5,5.1V51.4h-4.8V32.6
			c0-1.2-0.8-1.801-1.7-1.801c-1,0-2,0.7-3,1.5v19h-4.8V51.4z"/>
	</g>
	<g>
		<defs>
			<rect id="SVGID_5_" y="0" width="210" height="78.9"/>
		</defs>
		<clipPath id="SVGID_6_">
			<use xlink:href="#SVGID_5_"  overflow="visible"/>
		</clipPath>
		<path clip-path="url(#SVGID_6_)" fill="#FFFFFF" d="M36,34.3c0.3-4.899,3.2-7.6,7.7-7.6s7,2.2,7,6.6v15.5
			c0,0.801,0.2,1.801,0.3,2.601h-4.6c0-0.7-0.2-1.3-0.3-1.9c-1.8,1.5-3.3,2.3-5.6,2.3c-3.3,0-4.9-2.3-4.9-5.5
			c0-5.3,3.3-8.199,10.2-11V34c0-2-0.8-3.1-2.4-3.1c-2.2,0-2.7,1.399-2.7,3.399H36z M45.9,39.1c-4.4,2.6-5.4,4.3-5.4,6.399
			c0,1.601,0.8,2.2,2.2,2.2c1.3,0,2.4-1,3.2-2.3V39.1z"/>
	</g>
	<g>
		<defs>
			<rect id="SVGID_7_" y="0" width="210" height="78.9"/>
		</defs>
		<clipPath id="SVGID_8_">
			<use xlink:href="#SVGID_7_"  overflow="visible"/>
		</clipPath>
		<path clip-path="url(#SVGID_8_)" fill="#FFFFFF" d="M51.9,31.3v-4.1h2.7v-6.5h4.8v6.5h3.2v4.1h-3.2v14c0,1.301,0.5,2,1.6,2h1.6
			V51.6c-0.6,0.199-1.2,0.3-2.4,0.3c-3.6,0-5.6-1.8-5.6-5.5V31.3H51.9z"/>
	</g>
	<g>
		<defs>
			<rect id="SVGID_9_" y="0" width="210" height="78.9"/>
		</defs>
		<clipPath id="SVGID_10_">
			<use xlink:href="#SVGID_9_"  overflow="visible"/>
		</clipPath>
		<path clip-path="url(#SVGID_10_)" fill="#FFFFFF" d="M62.1,31.3v-4.1h2.7v-6.5h4.8v6.5h3.2v4.1h-3.2v14c0,1.301,0.5,2,1.6,2h1.6
			V51.6c-0.6,0.199-1.2,0.3-2.4,0.3c-3.6,0-5.6-1.8-5.6-5.5V31.3H62.1z"/>
	</g>
	<g>
		<defs>
			<rect id="SVGID_11_" y="0" width="210" height="78.9"/>
		</defs>
		<clipPath id="SVGID_12_">
			<use xlink:href="#SVGID_11_"  overflow="visible"/>
		</clipPath>
		<path clip-path="url(#SVGID_12_)" fill="#FFFFFF" d="M74.5,34.3c0.3-4.899,3.2-7.6,7.7-7.6s7,2.2,7,6.6v15.5
			c0,0.801,0.2,1.801,0.3,2.601h-4.6c0-0.7-0.2-1.3-0.3-1.9c-1.8,1.5-3.3,2.3-5.6,2.3c-3.3,0-4.9-2.3-4.9-5.5
			c0-5.3,3.3-8.199,10.2-11V34c0-2-0.8-3.1-2.4-3.1c-2.2,0-2.7,1.399-2.7,3.399H74.5z M84.4,39.1C80,41.7,79,43.4,79,45.5
			c0,1.601,0.8,2.2,2.2,2.2c1.3,0,2.4-1,3.2-2.3V39.1z"/>
	</g>
	<g>
		<defs>
			<rect id="SVGID_13_" y="0" width="210" height="78.9"/>
		</defs>
		<clipPath id="SVGID_14_">
			<use xlink:href="#SVGID_13_"  overflow="visible"/>
		</clipPath>
		<path clip-path="url(#SVGID_14_)" fill="#FFFFFF" d="M101,51.4V32.6c0-1.2-0.7-1.801-1.7-1.801s-2,0.7-3.1,1.5v19h-4.8V27.2H96
			v2.4c2-1.801,3-2.9,5.3-2.9c2.4,0,3.2,0.9,4.2,2.9c2.3-2.301,3.6-2.9,5.3-2.9c3,0,4.5,1.9,4.5,5.1V51.4h-4.8V32.6
			c0-1.2-0.8-1.801-1.7-1.801c-1,0-2,0.7-3,1.5v19H101V51.4z"/>
	</g>
	<g>
		<defs>
			<rect id="SVGID_15_" y="0" width="210" height="78.9"/>
		</defs>
		<clipPath id="SVGID_16_">
			<use xlink:href="#SVGID_15_"  overflow="visible"/>
		</clipPath>
		<path clip-path="url(#SVGID_16_)" fill="#FFFFFF" d="M127.4,27.2h4.8l-6,26c-1,4.4-3,5.8-6.5,5.8h-2v-4.1h1.2
			c2.399,0,3.199-1.4,3.199-3.9c0-1-0.199-2-0.5-3.2l-5-20.6h4.9l3.1,15.5h0.101L127.4,27.2z"/>
	</g>
	<g>
		<defs>
			<rect id="SVGID_17_" y="0" width="210" height="78.9"/>
		</defs>
		<clipPath id="SVGID_18_">
			<use xlink:href="#SVGID_17_"  overflow="visible"/>
		</clipPath>
		<polygon clip-path="url(#SVGID_18_)" fill="#C7C8CA" points="135.5,27.2 135.5,37.7 142.3,37.7 142.3,27.2 144.8,27.2 144.8,51.4 
			142.3,51.4 142.3,39.9 135.5,39.9 135.5,51.4 133.1,51.4 133.1,27.2 		"/>
	</g>
	<g>
		<defs>
			<rect id="SVGID_19_" y="0" width="210" height="78.9"/>
		</defs>
		<clipPath id="SVGID_20_">
			<use xlink:href="#SVGID_19_"  overflow="visible"/>
		</clipPath>
		<path clip-path="url(#SVGID_20_)" fill="#C7C8CA" d="M152.3,51.8c-3.899,0-6.5-3.399-6.5-12.5c0-9,2.601-12.5,6.5-12.5
			c3.9,0,6.5,3.4,6.5,12.5C158.8,48.3,156.2,51.8,152.3,51.8 M152.3,29.1c-2.2,0-4,2-4,10.199c0,8.2,1.8,10.2,4,10.2s4-2,4-10.2
			C156.3,31.1,154.6,29.1,152.3,29.1"/>
	</g>
	<g>
		<defs>
			<rect id="SVGID_21_" y="0" width="210" height="78.9"/>
		</defs>
		<clipPath id="SVGID_22_">
			<use xlink:href="#SVGID_21_"  overflow="visible"/>
		</clipPath>
		<polygon clip-path="url(#SVGID_22_)" fill="#C7C8CA" points="164.1,27.2 168.2,45.5 168.2,45.5 172.1,27.2 176.1,27.2 176.1,51.4 
			173.8,51.4 173.8,29.2 173.7,29.2 168.9,51.4 167.3,51.4 162.5,29.2 162.5,29.2 162.5,51.4 160.2,51.4 160.2,27.2 		"/>
	</g>
	<g>
		<defs>
			<rect id="SVGID_23_" y="0" width="210" height="78.9"/>
		</defs>
		<clipPath id="SVGID_24_">
			<use xlink:href="#SVGID_23_"  overflow="visible"/>
		</clipPath>
		<polygon clip-path="url(#SVGID_24_)" fill="#C7C8CA" points="188.6,27.2 188.6,29.4 180.6,29.4 180.6,37.7 186.5,37.7 186.5,39.9 
			180.6,39.9 180.6,49.2 189,49.2 189,51.4 178.1,51.4 178.1,27.2 		"/>
	</g>
	<g>
		<defs>
			<rect id="SVGID_25_" y="0" width="210" height="78.9"/>
		</defs>
		<clipPath id="SVGID_26_">
			<use xlink:href="#SVGID_25_"  overflow="visible"/>
		</clipPath>
		<path clip-path="url(#SVGID_26_)" fill="#C7C8CA" d="M197.9,33.4c-0.2-2.5-1.101-4.4-3.5-4.4c-1.9,0-3.2,1.3-3.2,3.2
			c0,5.5,9.3,5.5,9.3,13.3c0,3.9-2.1,6.2-5.9,6.2c-3.6,0-5.8-2.8-5.8-6.8h2.3c0.101,2.899,1.301,4.6,3.801,4.6
			c2.1,0,3.399-1.399,3.399-4c0-5.5-9.3-6.1-9.3-13.1c0-3.4,2.2-5.601,5.6-5.601c3.301,0,5.5,2.4,5.7,6.601H197.9z"/>
	</g>
</g>
</svg>
